inDegrees=no
num_controls=7
num_derivatives=13
num_iterations=118
num_multipliers=7
num_parameters=0
num_slacks=7
num_states=26
objective=0.497020
objective_accelerations=0.042161
objective_balance=0.003553
objective_effort=0.039718
objective_height=0.405763
objective_ligament=0.005825
solver_duration=1350.569784
status=Solve_Succeeded
success=true
DataType=double
version=3
OpenSimVersion=4.5
endheader
time	/jointset/ground_pelvis/pelvis_tilt/value	/jointset/ground_pelvis/pelvis_tx/value	/jointset/ground_pelvis/pelvis_ty/value	/jointset/hip_r/hip_flexion_r/value	/jointset/hip_r/hip_adduction_r/value	/jointset/hip_r/hip_rotation_r/value	/jointset/back/lumbar_extension/value	/jointset/patellofemoral_r/patellar_flexion_r/value	/jointset/knee_r/knee_flexion_r/value	/jointset/knee_r/knee_adduction_r/value	/jointset/knee_r/knee_rotation_r/value	/jointset/ankle_r/ankle_angle_r/value	/jointset/subtalar_r/subtalar_angle_r/value	/jointset/ground_pelvis/pelvis_tilt/speed	/jointset/ground_pelvis/pelvis_tx/speed	/jointset/ground_pelvis/pelvis_ty/speed	/jointset/hip_r/hip_flexion_r/speed	/jointset/hip_r/hip_adduction_r/speed	/jointset/hip_r/hip_rotation_r/speed	/jointset/back/lumbar_extension/speed	/jointset/patellofemoral_r/patellar_flexion_r/speed	/jointset/knee_r/knee_flexion_r/speed	/jointset/knee_r/knee_adduction_r/speed	/jointset/knee_r/knee_rotation_r/speed	/jointset/ankle_r/ankle_angle_r/speed	/jointset/subtalar_r/subtalar_angle_r/speed	/forceset/tau_hip_flexion_r	/forceset/tau_hip_adduction_r	/forceset/tau_hip_rotation_r	/forceset/tau_knee_flexion_r	/forceset/tau_ankle_angle_r	/forceset/tau_subtalar_angle_r	/forceset/tau_lumbar_extension	lambda_cid13_p0	lambda_cid14_p0	lambda_cid14_p1	lambda_cid14_p2	lambda_cid14_p3	lambda_cid14_p4	lambda_cid14_p5	/jointset/ground_pelvis/pelvis_tilt/accel	/jointset/ground_pelvis/pelvis_tx/accel	/jointset/ground_pelvis/pelvis_ty/accel	/jointset/hip_r/hip_flexion_r/accel	/jointset/hip_r/hip_adduction_r/accel	/jointset/hip_r/hip_rotation_r/accel	/jointset/back/lumbar_extension/accel	/jointset/patellofemoral_r/patellar_flexion_r/accel	/jointset/knee_r/knee_flexion_r/accel	/jointset/knee_r/knee_adduction_r/accel	/jointset/knee_r/knee_rotation_r/accel	/jointset/ankle_r/ankle_angle_r/accel	/jointset/subtalar_r/subtalar_angle_r/accel	gamma_cid13_p0	gamma_cid14_p0	gamma_cid14_p1	gamma_cid14_p2	gamma_cid14_p3	gamma_cid14_p4	gamma_cid14_p5
0	-0.006515290746988264	0.09626025844599903	0.9427240717837286	0.1762555222360518	-0.2321527355461034	-0.2616398786136716	-0.038598046466844	0.07317863873450933	0.07317863873451017	0.1745327805648747	0.1745321695050032	0.03247278518263602	-0.003452035865679904	0	0	0	0	0	0	0	0	0	0	0	0	0	0.2232863071591029	-0.1555218743226983	-0.04390955652212489	-0.4040102328915854	0.4006683215580412	-0.1509232494106535	-0.1202903256904428	-39.07617141358022	78.82619831389323	-41.90489574211545	-4.097949879109017	-32.9517195692402	-676.729870136843	52.17824383258514	-1.814013910087724	-1.081380125187718	-0.6159076749739577	8.871981389498144	-0.04461933449561072	2.616681361716905	-5.025534256913387	9.609108616990062	9.609108616990431	-2.49850667642528	0.1817281829199486	3.295851841047436	0.6871508017104003	8.396737876040695e-08	3.283744574127639e-08	-6.36497266754262e-07	1.615612569927447e-07	3.276742601552276e-08	3.703059815387244e-08	-2.888474316989766e-07
0.01	-0.006599948867980088	0.09620854978709834	0.9426945052760735	0.1766829959986571	-0.2321537224560156	-0.2615009742327375	-0.03885052517331099	0.0736452726858115	0.07364527268581164	0.1744081341673608	0.1745293202552854	0.03263539011439957	-0.003416962806104026	-0.01690984379918852	-0.01013658143552792	-0.005895533070393236	0.08496903869181016	-0.0002281848410904341	0.027641117167559	-0.0500295484142388	0.09290844586297495	0.09290844586297875	-0.02473462336909242	-0.0005518243949590229	0.03255900367287422	0.006992875704162001	0.2228160565924938	-0.1705204118548369	-0.04424736086281895	-0.4084969839453175	0.4072800912782464	-0.1390848740824698	-0.118948961743063	-39.09184584453306	81.43310901325388	-36.39448857405449	-4.87657083770311	-36.66716825228955	-677.5405973687411	63.37841105125182	-1.626201641941741	-0.9490180475589236	-0.573703447853152	8.230509094976085	-0.01660961168364306	2.81690638864378	-4.921736201811131	9.068944117793832	9.068944117794167	-2.431826264088316	-0.1708814194460724	3.241641035534789	0.7020140619625264	1.153763453869061e-07	2.219670168162389e-08	-8.796868302329939e-07	1.58781195069501e-07	7.345550439625389e-08	-1.60714424248593e-07	-3.641002179746196e-07
0.02	-0.00685305183238549	0.09606163113487762	0.942606517972758	0.1779443889453724	-0.2321579295248925	-0.261089842781256	-0.03958931357754668	0.07502843740511529	0.07502843740511493	0.1740419643167707	0.1745215040278774	0.03312472836391701	-0.003312629368047848	-0.03368896868267146	-0.01904199866400111	-0.01168415913203851	0.1667838368217641	-0.000644031792896641	0.05444541410985398	-0.09726193955375798	0.1833061535996547	0.1833061535996604	-0.04830469061566958	-0.0009933955396079247	0.06534666355084337	0.01385207569606151	0.2223458060258998	-0.1855189493869732	-0.04458516520352996	-0.4129837349990363	0.4138918609984565	-0.1272464987542822	-0.1176075977956752	-39.13808514452663	84.12338552257147	-30.88985771180269	-5.630998498816061	-40.57996541220647	-677.0910998978798	74.35449475069531	-1.787870126946608	-0.8351472837767692	-0.5945262732243645	8.241133277126908	-0.08215175663876127	2.449317316664119	-4.46610280196946	9.106960991731022	9.106960991731004	-2.265595451922234	0.2037788329819528	3.341583082066419	0.6604156592579069	1.467853120134053e-07	1.155595762197139e-08	-1.122876393711726e-06	1.560011331462573e-07	1.14143582776985e-07	-3.584594466510584e-07	-4.393530042502627e-07
0.03	-0.007272951955039885	0.09582957020113014	0.9424608446830783	0.1800107996792488	-0.2321675008634405	-0.2604169919744975	-0.04078796313130496	0.07730398637056582	0.07730398637056549	0.1734466271757152	0.1745118767906328	0.03394044950262049	-0.003141236697471584	-0.05018990041038426	-0.02738759751282855	-0.0174569344894652	0.2461659361922847	-0.001304533231492096	0.07999276978263026	-0.1422002404017307	0.2714010024026923	0.2714010024026736	-0.07054483681291339	-0.0009474211421418784	0.09756287391855377	0.02033786839356619	0.2146091426243877	-0.1919543911090636	-0.04224216617282842	-0.401771205779769	0.3942237970546092	-0.1140616062178284	-0.1117854564657416	-39.21359124436126	78.33436554188877	-26.26086640974861	-6.273504458004509	-36.67491072664122	-676.409530605043	82.38532924998898	-1.566020162240849	-0.836854606423062	-0.5696910106946138	7.736895770284436	-0.06327815679112625	2.587701686006754	-4.467534106792332	8.600321777425547	8.60032177742189	-2.170701051793587	-0.09722858501409332	3.126461713748717	0.6292136036476862	1.686754391576085e-07	1.024330605672163e-08	-1.282638945598685e-06	1.765422555074553e-07	1.350959563879139e-07	-4.72819734717389e-07	-5.07886822827481e-07
0.04	-0.007854824488282999	0.09551353559469697	0.9422572360710857	0.1828610609074845	-0.2321847329802387	-0.2594926162123266	-0.04242796376965912	0.0804483988146156	0.08044839881461342	0.17263539320305	0.1745022622317314	0.03507129708492622	-0.002907675594190086	-0.06608345080038602	-0.03583673320114818	-0.02327122359460424	0.323553935693598	-0.002176187442934488	0.1047504051923016	-0.1855321564729499	0.3570788493191467	0.3570788493191029	-0.09148405693688266	-0.0009908598703967527	0.1283719522712786	0.0262857622371085	0.206872479222877	-0.1983898328311551	-0.03989916714214147	-0.3905586765604995	0.3745557331107613	-0.1008767136813759	-0.1059633151358062	-39.31682983090924	72.62114461446004	-21.62939260791485	-6.904081381844399	-32.96122887103652	-674.5967399188202	90.22895232737721	-1.666393859404398	-0.855854651675207	-0.6028290227668327	7.842313303285466	-0.1243823112081455	2.291373264043143	-4.144825846618764	8.623560614414407	8.623560614414206	-2.005410237267335	0.185896207837762	3.060156679069307	0.5528358884654369	1.903693015702179e-07	9.122986295480178e-09	-1.440681352916743e-06	1.975642270291572e-07	1.556414082510118e-07	-5.854607499108097e-07	-5.762821059882369e-07
0.05	-0.008593144230052334	0.09511303392411721	0.9419950892618645	0.1864756018560073	-0.2322115650048112	-0.2583262159644428	-0.04449235542903691	0.0844384465369018	0.08443844653690034	0.1716210465319727	0.1744933708181165	0.03650419502608667	-0.002616879641252837	-0.08149068991588926	-0.0442240378391073	-0.02917625205632107	0.3989676545761295	-0.003215909295510883	0.1283833074051826	-0.2270311878977033	0.4405287140813153	0.4405287140812315	-0.1111651557422987	-0.0008036159368818261	0.1580428723605576	0.03181092431979005	0.2001007291477012	-0.1836940956175954	-0.03817962807930888	-0.3832320655146101	0.3657084353638539	-0.1086621888559444	-0.1006454035311582	-39.44591480414886	69.57673858701294	-25.57007910223114	-6.245672146586279	-30.98807017829342	-673.2853053426104	80.94502073422279	-1.464400504756786	-0.8242026141952377	-0.5871748312564405	7.332916528277708	-0.0977883070622325	2.377366748224839	-4.105193664673146	8.145363999429637	8.145363999423806	-1.916647982635223	-0.06720226351415447	2.895878093934305	0.5427767215994198	1.862268699573751e-07	5.612314484200712e-11	-1.408321388141356e-06	1.722536057258076e-07	1.625999538276957e-07	-6.691343266311863e-07	-5.546677636025995e-07
0.06	-0.00948283867640343	0.09462985235829006	0.9416733251533497	0.1908326830628634	-0.2322495984848655	-0.2569278630847674	-0.04696228777751614	0.08925092582527211	0.08925092582527079	0.1704164512167499	0.1744858836939127	0.03822886585215532	-0.002272747996802787	-0.09635839171673231	-0.05237271225062491	-0.03519468345333417	0.4720619873602894	-0.00441647853928095	0.1511409315506339	-0.2666402942932376	0.5215651625359456	0.5215651625358249	-0.1295337857659745	-0.0007100019882674626	0.1867265292529208	0.036952900539668	0.1933289790725253	-0.1689983584040355	-0.0364600890164772	-0.3759054544687207	0.3568611376169465	-0.1164476640305128	-0.09532749192651023	-39.59862258598798	66.60225159122599	-29.5235344122043	-5.556657506905786	-29.18105396342121	-670.9168828257204	71.45593193606634	-1.558486396472359	-0.8081286063869061	-0.6255096098260872	7.378436083611142	-0.1565517894468767	2.116317650557202	-3.766840840774944	8.140877352906758	8.140877352907195	-1.742916480919288	0.1671702108576451	2.862704039686141	0.4761987159047213	1.809965943855659e-07	-9.345331306402338e-09	-1.367944481383088e-06	1.449921384087717e-07	1.689864191396885e-07	-7.515882217316451e-07	-5.292635422465875e-07
0.07000000000000001	-0.01051912056214528	0.09406626980897143	0.9412906048105976	0.1959102640007515	-0.2323004861445163	-0.2553079944307215	-0.04981866397152208	0.0948626209043575	0.09486262090435603	0.169034894647264	0.1744806395360054	0.04023552108349348	-0.00187911474854008	-0.1108174952078695	-0.06031231331303449	-0.04137844990420417	0.5430904328884986	-0.005768606391127615	0.1726875666342664	-0.3043517487307266	0.6003658174107344	0.6003658174106487	-0.1465810148483107	-0.0003715364603003018	0.2144283166375743	0.04172809501047622	0.1864142752614261	-0.1627951873272405	-0.03451827901079894	-0.3690974978142015	0.3461192491079287	-0.1158234012474171	-0.08994711459749313	-39.77255707999284	63.3014420853371	-29.92361939139775	-5.386354312601979	-27.21247301584117	-669.0697337719809	69.09369090102118	-1.377528449783453	-0.7821193364608858	-0.6193212008723397	6.910489040099678	-0.1258347735987907	2.152109377957129	-3.730818378659237	7.688418038282656	7.688418038287629	-1.656347705065414	-0.03764690450343733	2.697517621527781	0.4711342955992364	1.664702544073174e-07	-1.702930124657822e-08	-1.248674184288311e-06	1.162953361679576e-07	1.659000554255639e-07	-7.959721457887117e-07	-4.799423047232226e-07
